<mxfile host="app.diagrams.net" modified="2024-05-03T16:11:09.102Z" agent="Mozilla/5.0 (Windows NT 10.0; Win64; x64) AppleWebKit/537.36 (KHTML, like Gecko) Chrome/123.0.0.0 Safari/537.36" etag="hyRWozXRFS2vzGxIanaA" version="24.3.1" type="device">
  <diagram name="Page-1" id="UMEwxMBWJUmdVjZJ0JMT">
    <mxGraphModel dx="1936" dy="1667" grid="1" gridSize="1" guides="1" tooltips="1" connect="1" arrows="1" fold="1" page="1" pageScale="1" pageWidth="850" pageHeight="1100" math="0" shadow="0">
      <root>
        <mxCell id="0" />
        <mxCell id="1" parent="0" />
        <mxCell id="G9bIeMPBq4oWQ3whd8wb-7" style="edgeStyle=orthogonalEdgeStyle;rounded=0;orthogonalLoop=1;jettySize=auto;html=1;exitX=0.25;exitY=1;exitDx=0;exitDy=0;" edge="1" parent="1" source="G9bIeMPBq4oWQ3whd8wb-1" target="G9bIeMPBq4oWQ3whd8wb-49">
          <mxGeometry relative="1" as="geometry">
            <mxPoint x="275" y="640" as="targetPoint" />
          </mxGeometry>
        </mxCell>
        <mxCell id="G9bIeMPBq4oWQ3whd8wb-9" style="edgeStyle=orthogonalEdgeStyle;rounded=0;orthogonalLoop=1;jettySize=auto;html=1;exitX=0;exitY=0.75;exitDx=0;exitDy=0;" edge="1" parent="1" source="G9bIeMPBq4oWQ3whd8wb-1" target="G9bIeMPBq4oWQ3whd8wb-10">
          <mxGeometry relative="1" as="geometry">
            <mxPoint x="240" y="490" as="targetPoint" />
          </mxGeometry>
        </mxCell>
        <mxCell id="G9bIeMPBq4oWQ3whd8wb-11" style="edgeStyle=orthogonalEdgeStyle;rounded=0;orthogonalLoop=1;jettySize=auto;html=1;exitX=0.5;exitY=1;exitDx=0;exitDy=0;" edge="1" parent="1" source="G9bIeMPBq4oWQ3whd8wb-1" target="G9bIeMPBq4oWQ3whd8wb-12">
          <mxGeometry relative="1" as="geometry">
            <mxPoint x="360" y="560" as="targetPoint" />
          </mxGeometry>
        </mxCell>
        <mxCell id="G9bIeMPBq4oWQ3whd8wb-13" style="edgeStyle=orthogonalEdgeStyle;rounded=0;orthogonalLoop=1;jettySize=auto;html=1;exitX=0.75;exitY=1;exitDx=0;exitDy=0;" edge="1" parent="1" source="G9bIeMPBq4oWQ3whd8wb-1" target="G9bIeMPBq4oWQ3whd8wb-14">
          <mxGeometry relative="1" as="geometry">
            <mxPoint x="480" y="560" as="targetPoint" />
          </mxGeometry>
        </mxCell>
        <mxCell id="G9bIeMPBq4oWQ3whd8wb-32" style="edgeStyle=orthogonalEdgeStyle;rounded=0;orthogonalLoop=1;jettySize=auto;html=1;exitX=1;exitY=0.5;exitDx=0;exitDy=0;" edge="1" parent="1" source="G9bIeMPBq4oWQ3whd8wb-1" target="G9bIeMPBq4oWQ3whd8wb-33">
          <mxGeometry relative="1" as="geometry">
            <mxPoint x="510" y="530" as="targetPoint" />
          </mxGeometry>
        </mxCell>
        <mxCell id="G9bIeMPBq4oWQ3whd8wb-101" style="edgeStyle=elbowEdgeStyle;rounded=0;orthogonalLoop=1;jettySize=auto;html=1;exitX=1;exitY=0.75;exitDx=0;exitDy=0;" edge="1" parent="1" source="G9bIeMPBq4oWQ3whd8wb-1" target="G9bIeMPBq4oWQ3whd8wb-102">
          <mxGeometry relative="1" as="geometry">
            <mxPoint x="590" y="600" as="targetPoint" />
          </mxGeometry>
        </mxCell>
        <mxCell id="G9bIeMPBq4oWQ3whd8wb-1" value="&lt;p style=&quot;line-height: 120%;&quot;&gt;&lt;b&gt;&lt;font style=&quot;font-size: 17px;&quot;&gt;Customer&lt;/font&gt;&lt;/b&gt;&lt;/p&gt;" style="rounded=0;whiteSpace=wrap;html=1;fillColor=#dae8fc;strokeColor=#6c8ebf;strokeWidth=3;" vertex="1" parent="1">
          <mxGeometry x="330" y="460" width="120" height="60" as="geometry" />
        </mxCell>
        <mxCell id="G9bIeMPBq4oWQ3whd8wb-18" style="edgeStyle=orthogonalEdgeStyle;rounded=0;orthogonalLoop=1;jettySize=auto;html=1;exitX=0.25;exitY=1;exitDx=0;exitDy=0;" edge="1" parent="1" source="G9bIeMPBq4oWQ3whd8wb-2" target="G9bIeMPBq4oWQ3whd8wb-19">
          <mxGeometry relative="1" as="geometry">
            <mxPoint x="80" y="390" as="targetPoint" />
          </mxGeometry>
        </mxCell>
        <mxCell id="G9bIeMPBq4oWQ3whd8wb-20" style="edgeStyle=orthogonalEdgeStyle;rounded=0;orthogonalLoop=1;jettySize=auto;html=1;exitX=0.5;exitY=1;exitDx=0;exitDy=0;" edge="1" parent="1" source="G9bIeMPBq4oWQ3whd8wb-2" target="G9bIeMPBq4oWQ3whd8wb-50">
          <mxGeometry relative="1" as="geometry">
            <mxPoint x="129.95000000000005" y="420" as="targetPoint" />
          </mxGeometry>
        </mxCell>
        <mxCell id="G9bIeMPBq4oWQ3whd8wb-22" style="edgeStyle=orthogonalEdgeStyle;rounded=0;orthogonalLoop=1;jettySize=auto;html=1;exitX=1;exitY=1;exitDx=0;exitDy=0;" edge="1" parent="1" source="G9bIeMPBq4oWQ3whd8wb-2" target="G9bIeMPBq4oWQ3whd8wb-23">
          <mxGeometry relative="1" as="geometry">
            <mxPoint x="260" y="350" as="targetPoint" />
          </mxGeometry>
        </mxCell>
        <mxCell id="G9bIeMPBq4oWQ3whd8wb-24" style="edgeStyle=orthogonalEdgeStyle;rounded=0;orthogonalLoop=1;jettySize=auto;html=1;exitX=0;exitY=0.5;exitDx=0;exitDy=0;" edge="1" parent="1" source="G9bIeMPBq4oWQ3whd8wb-2" target="G9bIeMPBq4oWQ3whd8wb-25">
          <mxGeometry relative="1" as="geometry">
            <mxPoint x="50" y="290" as="targetPoint" />
          </mxGeometry>
        </mxCell>
        <mxCell id="G9bIeMPBq4oWQ3whd8wb-2" value="&lt;b&gt;&lt;font style=&quot;font-size: 17px;&quot;&gt;Product&lt;/font&gt;&lt;/b&gt;" style="rounded=0;whiteSpace=wrap;html=1;fillColor=#dae8fc;strokeColor=#6c8ebf;strokeWidth=3;" vertex="1" parent="1">
          <mxGeometry x="20" y="310" width="120" height="60" as="geometry" />
        </mxCell>
        <mxCell id="G9bIeMPBq4oWQ3whd8wb-59" style="edgeStyle=orthogonalEdgeStyle;rounded=0;orthogonalLoop=1;jettySize=auto;html=1;exitX=0.25;exitY=0;exitDx=0;exitDy=0;" edge="1" parent="1" source="G9bIeMPBq4oWQ3whd8wb-3" target="G9bIeMPBq4oWQ3whd8wb-60">
          <mxGeometry relative="1" as="geometry">
            <mxPoint x="620" y="240" as="targetPoint" />
          </mxGeometry>
        </mxCell>
        <mxCell id="G9bIeMPBq4oWQ3whd8wb-61" style="edgeStyle=orthogonalEdgeStyle;rounded=0;orthogonalLoop=1;jettySize=auto;html=1;exitX=0.75;exitY=0;exitDx=0;exitDy=0;" edge="1" parent="1" source="G9bIeMPBq4oWQ3whd8wb-3" target="G9bIeMPBq4oWQ3whd8wb-62">
          <mxGeometry relative="1" as="geometry">
            <mxPoint x="720" y="260" as="targetPoint" />
          </mxGeometry>
        </mxCell>
        <mxCell id="G9bIeMPBq4oWQ3whd8wb-66" style="edgeStyle=orthogonalEdgeStyle;rounded=0;orthogonalLoop=1;jettySize=auto;html=1;exitX=1;exitY=0.5;exitDx=0;exitDy=0;" edge="1" parent="1" source="G9bIeMPBq4oWQ3whd8wb-3" target="G9bIeMPBq4oWQ3whd8wb-67">
          <mxGeometry relative="1" as="geometry">
            <mxPoint x="760" y="310" as="targetPoint" />
          </mxGeometry>
        </mxCell>
        <mxCell id="G9bIeMPBq4oWQ3whd8wb-68" style="edgeStyle=orthogonalEdgeStyle;rounded=0;orthogonalLoop=1;jettySize=auto;html=1;exitX=1;exitY=1;exitDx=0;exitDy=0;" edge="1" parent="1" source="G9bIeMPBq4oWQ3whd8wb-3" target="G9bIeMPBq4oWQ3whd8wb-69">
          <mxGeometry relative="1" as="geometry">
            <mxPoint x="750" y="360" as="targetPoint" />
          </mxGeometry>
        </mxCell>
        <mxCell id="G9bIeMPBq4oWQ3whd8wb-70" style="edgeStyle=orthogonalEdgeStyle;rounded=0;orthogonalLoop=1;jettySize=auto;html=1;exitX=0.75;exitY=1;exitDx=0;exitDy=0;" edge="1" parent="1" source="G9bIeMPBq4oWQ3whd8wb-3" target="G9bIeMPBq4oWQ3whd8wb-71">
          <mxGeometry relative="1" as="geometry">
            <mxPoint x="680" y="370" as="targetPoint" />
          </mxGeometry>
        </mxCell>
        <mxCell id="G9bIeMPBq4oWQ3whd8wb-75" style="edgeStyle=orthogonalEdgeStyle;rounded=0;orthogonalLoop=1;jettySize=auto;html=1;exitX=0.5;exitY=1;exitDx=0;exitDy=0;" edge="1" parent="1" source="G9bIeMPBq4oWQ3whd8wb-3" target="G9bIeMPBq4oWQ3whd8wb-76">
          <mxGeometry relative="1" as="geometry">
            <mxPoint x="640" y="390" as="targetPoint" />
          </mxGeometry>
        </mxCell>
        <mxCell id="G9bIeMPBq4oWQ3whd8wb-3" value="&lt;b&gt;&lt;font style=&quot;font-size: 17px;&quot;&gt;Admins&lt;/font&gt;&lt;/b&gt;" style="rounded=0;whiteSpace=wrap;html=1;fillColor=#dae8fc;strokeColor=#6c8ebf;strokeWidth=3;" vertex="1" parent="1">
          <mxGeometry x="590" y="280" width="120" height="50" as="geometry" />
        </mxCell>
        <mxCell id="G9bIeMPBq4oWQ3whd8wb-47" style="edgeStyle=orthogonalEdgeStyle;rounded=0;orthogonalLoop=1;jettySize=auto;html=1;exitX=0.75;exitY=0;exitDx=0;exitDy=0;" edge="1" parent="1" source="G9bIeMPBq4oWQ3whd8wb-4" target="G9bIeMPBq4oWQ3whd8wb-48">
          <mxGeometry relative="1" as="geometry">
            <mxPoint x="460" y="30" as="targetPoint" />
          </mxGeometry>
        </mxCell>
        <mxCell id="G9bIeMPBq4oWQ3whd8wb-51" style="edgeStyle=orthogonalEdgeStyle;rounded=0;orthogonalLoop=1;jettySize=auto;html=1;exitX=0.25;exitY=0;exitDx=0;exitDy=0;" edge="1" parent="1" source="G9bIeMPBq4oWQ3whd8wb-4" target="G9bIeMPBq4oWQ3whd8wb-52">
          <mxGeometry relative="1" as="geometry">
            <mxPoint x="360" y="40" as="targetPoint" />
          </mxGeometry>
        </mxCell>
        <mxCell id="G9bIeMPBq4oWQ3whd8wb-53" style="edgeStyle=orthogonalEdgeStyle;rounded=0;orthogonalLoop=1;jettySize=auto;html=1;exitX=1;exitY=0.25;exitDx=0;exitDy=0;" edge="1" parent="1" source="G9bIeMPBq4oWQ3whd8wb-4" target="G9bIeMPBq4oWQ3whd8wb-54">
          <mxGeometry relative="1" as="geometry">
            <mxPoint x="500" y="105.14285714285711" as="targetPoint" />
          </mxGeometry>
        </mxCell>
        <mxCell id="G9bIeMPBq4oWQ3whd8wb-55" style="edgeStyle=orthogonalEdgeStyle;rounded=0;orthogonalLoop=1;jettySize=auto;html=1;exitX=1;exitY=0.75;exitDx=0;exitDy=0;" edge="1" parent="1" source="G9bIeMPBq4oWQ3whd8wb-4" target="G9bIeMPBq4oWQ3whd8wb-56">
          <mxGeometry relative="1" as="geometry">
            <mxPoint x="490" y="134.8571428571429" as="targetPoint" />
          </mxGeometry>
        </mxCell>
        <mxCell id="G9bIeMPBq4oWQ3whd8wb-4" value="&lt;font style=&quot;font-size: 17px;&quot;&gt;&lt;b&gt;Order&amp;nbsp;&lt;/b&gt;&lt;/font&gt;" style="rounded=0;whiteSpace=wrap;html=1;fillColor=#dae8fc;strokeColor=#6c8ebf;strokeWidth=3;" vertex="1" parent="1">
          <mxGeometry x="340" y="90" width="120" height="60" as="geometry" />
        </mxCell>
        <mxCell id="G9bIeMPBq4oWQ3whd8wb-37" style="edgeStyle=orthogonalEdgeStyle;rounded=0;orthogonalLoop=1;jettySize=auto;html=1;exitX=0;exitY=0.75;exitDx=0;exitDy=0;" edge="1" parent="1" source="G9bIeMPBq4oWQ3whd8wb-5" target="G9bIeMPBq4oWQ3whd8wb-38">
          <mxGeometry relative="1" as="geometry">
            <mxPoint x="-60" y="120" as="targetPoint" />
          </mxGeometry>
        </mxCell>
        <mxCell id="G9bIeMPBq4oWQ3whd8wb-39" style="edgeStyle=orthogonalEdgeStyle;rounded=0;orthogonalLoop=1;jettySize=auto;html=1;exitX=0.25;exitY=1;exitDx=0;exitDy=0;" edge="1" parent="1" source="G9bIeMPBq4oWQ3whd8wb-5" target="G9bIeMPBq4oWQ3whd8wb-40">
          <mxGeometry relative="1" as="geometry">
            <mxPoint x="10" y="140" as="targetPoint" />
          </mxGeometry>
        </mxCell>
        <mxCell id="G9bIeMPBq4oWQ3whd8wb-41" style="edgeStyle=orthogonalEdgeStyle;rounded=0;orthogonalLoop=1;jettySize=auto;html=1;exitX=0.5;exitY=0;exitDx=0;exitDy=0;" edge="1" parent="1" source="G9bIeMPBq4oWQ3whd8wb-5" target="G9bIeMPBq4oWQ3whd8wb-42">
          <mxGeometry relative="1" as="geometry">
            <mxPoint x="60" as="targetPoint" />
            <Array as="points">
              <mxPoint x="70" y="30" />
              <mxPoint x="-5" y="30" />
            </Array>
          </mxGeometry>
        </mxCell>
        <mxCell id="G9bIeMPBq4oWQ3whd8wb-43" style="edgeStyle=orthogonalEdgeStyle;rounded=0;orthogonalLoop=1;jettySize=auto;html=1;exitX=0.75;exitY=0;exitDx=0;exitDy=0;" edge="1" parent="1" source="G9bIeMPBq4oWQ3whd8wb-5" target="G9bIeMPBq4oWQ3whd8wb-44">
          <mxGeometry relative="1" as="geometry">
            <mxPoint x="90" y="-10" as="targetPoint" />
          </mxGeometry>
        </mxCell>
        <mxCell id="G9bIeMPBq4oWQ3whd8wb-5" value="&lt;b&gt;&lt;font style=&quot;font-size: 17px;&quot;&gt;Order Details&lt;/font&gt;&lt;/b&gt;" style="rounded=0;whiteSpace=wrap;html=1;fillColor=#dae8fc;strokeColor=#6c8ebf;strokeWidth=3;" vertex="1" parent="1">
          <mxGeometry x="10" y="40" width="120" height="60" as="geometry" />
        </mxCell>
        <mxCell id="G9bIeMPBq4oWQ3whd8wb-10" value="&lt;font style=&quot;font-size: 13px;&quot;&gt;Name&lt;/font&gt;" style="ellipse;whiteSpace=wrap;html=1;fillColor=#ffff88;strokeColor=#36393d;" vertex="1" parent="1">
          <mxGeometry x="180" y="560" width="80" height="50" as="geometry" />
        </mxCell>
        <mxCell id="G9bIeMPBq4oWQ3whd8wb-12" value="&lt;font style=&quot;font-size: 13px;&quot;&gt;Gender&lt;/font&gt;" style="ellipse;whiteSpace=wrap;html=1;fillColor=#ffff88;strokeColor=#36393d;" vertex="1" parent="1">
          <mxGeometry x="340" y="630" width="90" height="50" as="geometry" />
        </mxCell>
        <mxCell id="G9bIeMPBq4oWQ3whd8wb-14" value="&lt;font style=&quot;font-size: 13px;&quot;&gt;Mobile Number&lt;/font&gt;" style="ellipse;whiteSpace=wrap;html=1;fillColor=#ffff88;strokeColor=#36393d;" vertex="1" parent="1">
          <mxGeometry x="440" y="620" width="80" height="50" as="geometry" />
        </mxCell>
        <mxCell id="G9bIeMPBq4oWQ3whd8wb-19" value="&lt;font style=&quot;font-size: 13px;&quot;&gt;Make&lt;/font&gt;" style="ellipse;whiteSpace=wrap;html=1;fillColor=#ffff88;strokeColor=#36393d;" vertex="1" parent="1">
          <mxGeometry x="-20" y="450" width="90" height="60" as="geometry" />
        </mxCell>
        <mxCell id="G9bIeMPBq4oWQ3whd8wb-23" value="&lt;font style=&quot;font-size: 13px;&quot;&gt;Model&lt;/font&gt;" style="ellipse;whiteSpace=wrap;html=1;fillColor=#ffff88;strokeColor=#36393d;" vertex="1" parent="1">
          <mxGeometry x="170" y="370" width="90" height="50" as="geometry" />
        </mxCell>
        <mxCell id="G9bIeMPBq4oWQ3whd8wb-25" value="&lt;font style=&quot;font-size: 13px;&quot;&gt;Price&lt;/font&gt;" style="ellipse;whiteSpace=wrap;html=1;fillColor=#ffff88;strokeColor=#36393d;" vertex="1" parent="1">
          <mxGeometry x="-70" y="390" width="90" height="50" as="geometry" />
        </mxCell>
        <mxCell id="G9bIeMPBq4oWQ3whd8wb-33" value="Email" style="ellipse;whiteSpace=wrap;html=1;fillColor=#ffff88;strokeColor=#36393d;fillStyle=solid;gradientDirection=radial;" vertex="1" parent="1">
          <mxGeometry x="545" y="470" width="70" height="60" as="geometry" />
        </mxCell>
        <mxCell id="G9bIeMPBq4oWQ3whd8wb-38" value="&lt;span style=&quot;border-bottom: 1px dotted&quot;&gt;&lt;font style=&quot;font-size: 13px;&quot;&gt;Car_id&lt;/font&gt;&lt;/span&gt;" style="ellipse;whiteSpace=wrap;html=1;align=center;fillColor=#ffff88;strokeColor=#36393d;" vertex="1" parent="1">
          <mxGeometry x="-120" y="40" width="80" height="40" as="geometry" />
        </mxCell>
        <mxCell id="G9bIeMPBq4oWQ3whd8wb-40" value="&lt;span style=&quot;border-bottom: 1px dotted&quot;&gt;&lt;font style=&quot;font-size: 13px;&quot;&gt;Sale_id&lt;/font&gt;&lt;/span&gt;" style="ellipse;whiteSpace=wrap;html=1;align=center;fillColor=#ffff88;strokeColor=#36393d;" vertex="1" parent="1">
          <mxGeometry x="-30" y="130" width="70" height="40" as="geometry" />
        </mxCell>
        <mxCell id="G9bIeMPBq4oWQ3whd8wb-42" value="&lt;font style=&quot;font-size: 13px;&quot;&gt;Payment Method&lt;/font&gt;" style="ellipse;whiteSpace=wrap;html=1;fillColor=#ffff88;strokeColor=#36393d;" vertex="1" parent="1">
          <mxGeometry x="-40" y="-30" width="70" height="40" as="geometry" />
        </mxCell>
        <mxCell id="G9bIeMPBq4oWQ3whd8wb-44" value="&lt;font style=&quot;font-size: 13px;&quot;&gt;Location&lt;/font&gt;" style="ellipse;whiteSpace=wrap;html=1;fillColor=#ffff88;strokeColor=#36393d;" vertex="1" parent="1">
          <mxGeometry x="40" y="-40" width="80" height="40" as="geometry" />
        </mxCell>
        <mxCell id="G9bIeMPBq4oWQ3whd8wb-48" value="&lt;font style=&quot;font-size: 13px;&quot;&gt;Sale_id&lt;/font&gt;" style="ellipse;whiteSpace=wrap;html=1;align=center;fontStyle=4;fillColor=#ffff88;strokeColor=#36393d;" vertex="1" parent="1">
          <mxGeometry x="365" y="20" width="80" height="40" as="geometry" />
        </mxCell>
        <mxCell id="G9bIeMPBq4oWQ3whd8wb-49" value="Customer_id" style="ellipse;whiteSpace=wrap;html=1;align=center;fontStyle=4;fillColor=#ffff88;strokeColor=#36393d;" vertex="1" parent="1">
          <mxGeometry x="225" y="620" width="100" height="40" as="geometry" />
        </mxCell>
        <mxCell id="G9bIeMPBq4oWQ3whd8wb-50" value="Car_id" style="ellipse;whiteSpace=wrap;html=1;align=center;fontStyle=4;fillColor=#ffff88;strokeColor=#36393d;" vertex="1" parent="1">
          <mxGeometry x="70.00000000000004" y="420" width="100" height="40" as="geometry" />
        </mxCell>
        <mxCell id="G9bIeMPBq4oWQ3whd8wb-52" value="&lt;span style=&quot;border-bottom: 1px dotted&quot;&gt;Customer_id&lt;/span&gt;" style="ellipse;whiteSpace=wrap;html=1;align=center;fillColor=#ffff88;strokeColor=#36393d;" vertex="1" parent="1">
          <mxGeometry x="245" y="30" width="80" height="40" as="geometry" />
        </mxCell>
        <mxCell id="G9bIeMPBq4oWQ3whd8wb-54" value="&lt;font style=&quot;font-size: 13px;&quot;&gt;Sales_Total&lt;/font&gt;" style="ellipse;whiteSpace=wrap;html=1;align=center;fillColor=#ffff88;strokeColor=#36393d;" vertex="1" parent="1">
          <mxGeometry x="460" y="40.00285714285711" width="100" height="40" as="geometry" />
        </mxCell>
        <mxCell id="G9bIeMPBq4oWQ3whd8wb-56" value="Date" style="ellipse;whiteSpace=wrap;html=1;align=center;fillColor=#ffff88;strokeColor=#36393d;" vertex="1" parent="1">
          <mxGeometry x="510" y="110" width="80" height="40" as="geometry" />
        </mxCell>
        <mxCell id="G9bIeMPBq4oWQ3whd8wb-60" value="Name" style="ellipse;whiteSpace=wrap;html=1;align=center;fillColor=#ffff88;strokeColor=#36393d;" vertex="1" parent="1">
          <mxGeometry x="530" y="210" width="100" height="40" as="geometry" />
        </mxCell>
        <mxCell id="G9bIeMPBq4oWQ3whd8wb-62" value="Admin_id" style="ellipse;whiteSpace=wrap;html=1;align=center;fontStyle=4;fillColor=#ffff88;strokeColor=#36393d;" vertex="1" parent="1">
          <mxGeometry x="730" y="230" width="90" height="30" as="geometry" />
        </mxCell>
        <mxCell id="G9bIeMPBq4oWQ3whd8wb-67" value="Email" style="ellipse;whiteSpace=wrap;html=1;align=center;fillColor=#ffff88;strokeColor=#36393d;" vertex="1" parent="1">
          <mxGeometry x="750" y="290" width="60" height="30" as="geometry" />
        </mxCell>
        <mxCell id="G9bIeMPBq4oWQ3whd8wb-69" value="Phone&amp;nbsp;" style="ellipse;whiteSpace=wrap;html=1;align=center;fillColor=#ffff88;strokeColor=#36393d;" vertex="1" parent="1">
          <mxGeometry x="745" y="350" width="55" height="30" as="geometry" />
        </mxCell>
        <mxCell id="G9bIeMPBq4oWQ3whd8wb-71" value="Role" style="ellipse;whiteSpace=wrap;html=1;align=center;fillColor=#ffff88;strokeColor=#36393d;" vertex="1" parent="1">
          <mxGeometry x="660" y="370" width="60" height="30" as="geometry" />
        </mxCell>
        <mxCell id="G9bIeMPBq4oWQ3whd8wb-76" value="Password" style="ellipse;whiteSpace=wrap;html=1;align=center;fillColor=#ffff88;strokeColor=#36393d;" vertex="1" parent="1">
          <mxGeometry x="570" y="370" width="70" height="30" as="geometry" />
        </mxCell>
        <mxCell id="G9bIeMPBq4oWQ3whd8wb-81" value="&lt;font style=&quot;font-size: 17px;&quot;&gt;Has&lt;/font&gt;" style="shape=rhombus;perimeter=rhombusPerimeter;whiteSpace=wrap;html=1;align=center;fillColor=#f8cecc;strokeColor=#b85450;strokeWidth=2;" vertex="1" parent="1">
          <mxGeometry x="180" y="130" width="100" height="60" as="geometry" />
        </mxCell>
        <mxCell id="G9bIeMPBq4oWQ3whd8wb-87" value="" style="edgeStyle=entityRelationEdgeStyle;fontSize=12;html=1;endArrow=none;startArrow=ERmandOne;rounded=0;endFill=0;strokeWidth=3;" edge="1" parent="1" source="G9bIeMPBq4oWQ3whd8wb-5" target="G9bIeMPBq4oWQ3whd8wb-81">
          <mxGeometry width="100" height="100" relative="1" as="geometry">
            <mxPoint x="120" y="220" as="sourcePoint" />
            <mxPoint x="220" y="120" as="targetPoint" />
            <Array as="points">
              <mxPoint x="190" y="160" />
            </Array>
          </mxGeometry>
        </mxCell>
        <mxCell id="G9bIeMPBq4oWQ3whd8wb-88" value="" style="edgeStyle=entityRelationEdgeStyle;fontSize=12;html=1;endArrow=ERmandOne;startArrow=none;rounded=0;exitX=1;exitY=0.5;exitDx=0;exitDy=0;entryX=0;entryY=0.75;entryDx=0;entryDy=0;startFill=0;strokeWidth=3;" edge="1" parent="1" source="G9bIeMPBq4oWQ3whd8wb-81" target="G9bIeMPBq4oWQ3whd8wb-4">
          <mxGeometry width="100" height="100" relative="1" as="geometry">
            <mxPoint x="320" y="310" as="sourcePoint" />
            <mxPoint x="420" y="210" as="targetPoint" />
            <Array as="points">
              <mxPoint x="330" y="850" />
            </Array>
          </mxGeometry>
        </mxCell>
        <mxCell id="G9bIeMPBq4oWQ3whd8wb-90" value="&lt;font style=&quot;font-size: 17px;&quot;&gt;Check&lt;/font&gt;" style="shape=rhombus;perimeter=rhombusPerimeter;whiteSpace=wrap;html=1;align=center;fillColor=#f8cecc;strokeColor=#b85450;strokeWidth=2;" vertex="1" parent="1">
          <mxGeometry x="220" y="220" width="110" height="80" as="geometry" />
        </mxCell>
        <mxCell id="G9bIeMPBq4oWQ3whd8wb-93" value="" style="edgeStyle=orthogonalEdgeStyle;fontSize=12;html=1;endArrow=ERoneToMany;rounded=0;exitX=0;exitY=0.5;exitDx=0;exitDy=0;entryX=0.5;entryY=1;entryDx=0;entryDy=0;strokeWidth=3;" edge="1" parent="1" source="G9bIeMPBq4oWQ3whd8wb-90" target="G9bIeMPBq4oWQ3whd8wb-5">
          <mxGeometry width="100" height="100" relative="1" as="geometry">
            <mxPoint x="310" y="320" as="sourcePoint" />
            <mxPoint x="70" y="110" as="targetPoint" />
          </mxGeometry>
        </mxCell>
        <mxCell id="G9bIeMPBq4oWQ3whd8wb-94" value="" style="fontSize=12;html=1;endArrow=ERoneToMany;rounded=0;entryX=0;entryY=0.25;entryDx=0;entryDy=0;exitX=1;exitY=0.5;exitDx=0;exitDy=0;strokeWidth=3;" edge="1" parent="1" source="G9bIeMPBq4oWQ3whd8wb-90" target="G9bIeMPBq4oWQ3whd8wb-3">
          <mxGeometry width="100" height="100" relative="1" as="geometry">
            <mxPoint x="470" y="230" as="sourcePoint" />
            <mxPoint x="490" y="290" as="targetPoint" />
            <Array as="points">
              <mxPoint x="440" y="300" />
            </Array>
          </mxGeometry>
        </mxCell>
        <mxCell id="G9bIeMPBq4oWQ3whd8wb-95" value="" style="edgeStyle=entityRelationEdgeStyle;fontSize=12;html=1;endArrow=ERmandOne;rounded=0;exitX=1;exitY=0.5;exitDx=0;exitDy=0;endFill=0;strokeWidth=3;" edge="1" parent="1" source="G9bIeMPBq4oWQ3whd8wb-96">
          <mxGeometry width="100" height="100" relative="1" as="geometry">
            <mxPoint x="310" y="350" as="sourcePoint" />
            <mxPoint x="590" y="318" as="targetPoint" />
          </mxGeometry>
        </mxCell>
        <mxCell id="G9bIeMPBq4oWQ3whd8wb-96" value="&lt;font style=&quot;font-size: 16px;&quot;&gt;Update&lt;/font&gt;" style="shape=rhombus;perimeter=rhombusPerimeter;whiteSpace=wrap;html=1;align=center;fillColor=#f8cecc;strokeColor=#b85450;perimeterSpacing=0;strokeWidth=3;" vertex="1" parent="1">
          <mxGeometry x="260" y="300" width="120" height="60" as="geometry" />
        </mxCell>
        <mxCell id="G9bIeMPBq4oWQ3whd8wb-97" value="" style="fontSize=12;html=1;endArrow=ERoneToMany;rounded=0;entryX=1;entryY=0.5;entryDx=0;entryDy=0;exitX=0;exitY=0.5;exitDx=0;exitDy=0;strokeWidth=3;" edge="1" parent="1" source="G9bIeMPBq4oWQ3whd8wb-96" target="G9bIeMPBq4oWQ3whd8wb-2">
          <mxGeometry width="100" height="100" relative="1" as="geometry">
            <mxPoint x="310" y="350" as="sourcePoint" />
            <mxPoint x="410" y="250" as="targetPoint" />
          </mxGeometry>
        </mxCell>
        <mxCell id="G9bIeMPBq4oWQ3whd8wb-98" value="" style="fontSize=12;html=1;endArrow=ERmandOne;rounded=0;entryX=0.5;entryY=0;entryDx=0;entryDy=0;endFill=0;exitX=0.5;exitY=1;exitDx=0;exitDy=0;fillColor=none;curved=0;strokeWidth=3;" edge="1" parent="1" source="G9bIeMPBq4oWQ3whd8wb-99" target="G9bIeMPBq4oWQ3whd8wb-1">
          <mxGeometry width="100" height="100" relative="1" as="geometry">
            <mxPoint x="410" y="340" as="sourcePoint" />
            <mxPoint x="410" y="370" as="targetPoint" />
          </mxGeometry>
        </mxCell>
        <mxCell id="G9bIeMPBq4oWQ3whd8wb-99" value="&lt;font style=&quot;font-size: 14px;&quot;&gt;Make&lt;/font&gt;" style="shape=rhombus;perimeter=rhombusPerimeter;whiteSpace=wrap;html=1;align=center;fillColor=#f8cecc;strokeColor=#b85450;strokeWidth=2;fillStyle=auto;" vertex="1" parent="1">
          <mxGeometry x="350" y="200" width="90" height="50" as="geometry" />
        </mxCell>
        <mxCell id="G9bIeMPBq4oWQ3whd8wb-100" value="" style="fontSize=12;html=1;endArrow=ERzeroToMany;startArrow=none;rounded=0;entryX=0.5;entryY=1;entryDx=0;entryDy=0;exitX=0.5;exitY=0;exitDx=0;exitDy=0;startFill=0;strokeWidth=3;" edge="1" parent="1" source="G9bIeMPBq4oWQ3whd8wb-99" target="G9bIeMPBq4oWQ3whd8wb-4">
          <mxGeometry width="100" height="100" relative="1" as="geometry">
            <mxPoint x="320" y="270" as="sourcePoint" />
            <mxPoint x="420" y="170" as="targetPoint" />
          </mxGeometry>
        </mxCell>
        <mxCell id="G9bIeMPBq4oWQ3whd8wb-102" value="&lt;font style=&quot;font-size: 14px;&quot;&gt;DOB&lt;/font&gt;" style="ellipse;whiteSpace=wrap;html=1;align=center;fillColor=#ffff88;strokeColor=#36393d;" vertex="1" parent="1">
          <mxGeometry x="530" y="550" width="100" height="40" as="geometry" />
        </mxCell>
      </root>
    </mxGraphModel>
  </diagram>
</mxfile>
